<svg width="166" height="181" viewBox="0 0 166 181" fill="none" xmlns="http://www.w3.org/2000/svg">
<path d="M43.1744 4.54339C37.481 7.06732 33.7475 14.0583 32.3119 19.7625C31.5304 22.9501 31.0683 27.7802 31.2339 31.2622C31.3317 33.413 32.0377 37.6164 32.5452 39.0794C33.237 41.0982 33.5898 41.2493 37.0483 41.2152C40.4133 41.1712 41.4005 41.3038 43.8216 42.1427C46.2217 42.9557 47.567 43.6054 49.5266 44.8987C51.9648 46.4989 52.1625 46.2255 51.5294 42.2813C50.3971 35.6842 50.1585 28.6846 50.2965 22.0237C50.4363 17.2026 50.7442 12.4199 52.4885 7.87443C53.3372 5.60515 53.308 5.47394 51.9915 4.68023C49.8017 3.37681 46.0935 3.31339 43.1744 4.54339ZM43.149 8.46564C45.225 9.62213 40.8754 16.3933 39.6799 17.4827C38.5638 18.4804 37.9647 19.5468 38.1234 20.2612C38.2789 20.961 38.0551 22.1429 37.6006 23.0394C36.6776 24.7604 36.1131 27.1645 36.0565 29.0891C36.0173 31.102 35.6358 32.3954 35.1574 32.2263C33.189 31.5356 36.1112 24.381 36.2198 22.367C36.2908 21.2497 36.5989 20.4469 37.1761 19.8291C37.7903 19.1724 37.8382 18.8405 37.5685 17.0798C37.1294 14.3105 38.4767 11.4773 40.4003 9.50476C41.4358 8.41793 42.4062 8.06461 43.149 8.46564Z" fill="#F5EFFF" fill-opacity="0.05"/>
<path d="M59.9289 1.06569C58.9668 1.66194 58.0921 2.51416 57.4043 3.52374C54.3635 8.09672 54.7391 15.9689 54.6664 21.2366C54.5971 28.5554 54.7346 35.8693 54.6939 43.1849C54.6876 45.7565 54.7281 45.8699 56.5795 48.1818C58.3746 50.445 60.6703 53.8668 60.424 53.9215C60.4095 53.9247 59.9372 53.5095 59.381 52.9905C58.0011 51.706 55.5078 49.8581 52.4524 47.8749C45.668 43.4769 40.8195 41.9075 32.9892 41.6279C30.7978 41.5487 30.4226 41.5709 28.161 41.9969C23.9629 42.8073 22.0674 43.7181 17.6698 47.0513C15.5112 48.6937 13.4755 51.9152 12.9235 54.5622L12.7155 55.5417L12.0707 54.9659C9.87331 52.9726 5.79697 52.3905 3.39944 54.3224C2.32987 55.1873 1.47967 56.3554 1.19445 57.3979C0.633884 59.1981 0.410169 61.4228 0.796494 63.2694C1.26623 65.3834 2.27753 66.7192 4.0353 67.5832C7.0962 69.0489 9.13392 68.0409 11.4509 65.9967C12.6989 64.9085 12.9996 64.551 13.7079 63.2921C14.4758 61.9587 14.8755 61.061 15.9411 60.8222C17.0067 60.5835 15.225 63.1813 14.7565 63.5639C13.7271 64.4046 13.1632 65.3561 12.9991 66.6012C12.7264 68.5895 13.7413 70.2152 16.5794 72.2466C23.056 76.9088 31.6149 77.7932 39.2129 76.1369C43.3428 75.2396 47.004 73.6034 50.4142 71.0624C54.1026 68.288 52.1127 70.9678 49.8015 72.3606C47.813 73.5368 47.4147 73.6413 47.4502 76.1272C47.481 77.4973 47.5866 78.1776 48.4321 81.9828C49.6065 87.3366 50.5893 90.2546 52.4199 93.8409C54.2845 97.5115 56.3645 99.7573 60.0693 102.132L61.576 103.097L61.2239 103.497C60.5937 104.218 57.8673 108.71 56.8379 110.713C54.3968 115.463 53.1931 118.393 51.7085 123.205C47.8496 135.736 46.6399 147.464 48.1413 157.778C48.9667 163.409 51.4414 169.483 54.3702 173.086C55.978 175.054 58.3651 176.971 60.0663 177.649C62.6696 178.692 67.3716 179.055 70.211 178.424C74.2712 177.522 77.7748 174.677 77.6583 170.344C77.6452 168.985 76.9373 165.731 74.5606 155.855C72.0672 145.455 71.5039 140.73 72.0282 134.265C72.2169 132.035 72.4398 130.165 72.5285 130.222C72.5639 130.244 72.6178 130.829 72.6542 131.54C72.7259 133.437 73.4733 140.905 73.816 143.2C75.1355 152.285 77.2161 161.033 79.266 166.085C80.8716 170.028 82.1305 172.272 84.0803 174.685C86.5688 177.742 88.9765 179.41 91.9723 180.168C99.4683 182.032 104.813 175.152 106.835 168.787C110.468 157.218 109.422 143.506 108.759 131.611C108.374 124.48 105.729 117.088 102.076 110.973C101.095 109.294 99.6736 107.483 98.3968 106.252L97.32 105.237L98.8121 104.906C101.68 104.268 105.308 102.804 108.173 101.127C111.952 98.9107 114.809 96.5778 118.33 92.8579C119.14 91.9894 119.88 91.2131 119.98 91.1145C120.19 90.8994 119.702 92.1246 119.015 93.5472C118.419 94.7658 118.415 94.8127 119.282 97.1443C120.48 100.412 122.645 104.751 124.8 108.158C127.998 113.245 133.076 120.363 136.887 125.131C141.621 131.041 145.57 134.034 150.112 135.182C152.891 135.872 156.572 135.724 159.268 134.723C167.705 131.595 166.012 120.521 164.22 113.703C160.328 98.8692 150.461 87.9014 138.104 79.4989C132.766 75.8656 130.322 74.5117 128.334 74.0506L127.102 73.7736L127.378 73.1003C131.664 62.3217 134.856 43.1441 124.06 35.452L123.164 34.8402L123.302 33.4784C123.63 30.4376 123.299 26.625 122.556 24.5106C121.772 22.2828 120.81 21.441 119.55 21.8587C118.743 22.1297 118.208 22.7994 117.468 24.4631C116.429 26.8358 115.808 30.2633 115.782 33.9102C115.776 34.707 115.705 35.4113 115.621 35.4452C115.541 35.4937 115.048 35.7408 114.513 35.9975C104.329 40.9723 99.6737 60.6396 105.047 69.8161C105.361 70.3429 105.798 70.873 105.996 71.0126C106.206 71.1343 106.95 71.3362 107.649 71.4716C109.603 71.8483 112.168 72.5174 113.578 73.0457C114.77 73.4846 118.222 75.6092 118.296 75.9445C118.316 76.032 117.976 75.9392 117.538 75.7459C114.33 74.3779 109.505 73.3235 105.834 73.2213C102.084 73.106 100.202 73.3253 95.3743 74.3826C91.5064 75.242 90.8352 75.4371 89.292 76.086C86.7591 77.1384 85.0858 78.0915 84.5103 78.7855C84.028 79.3516 84.0232 79.3986 84.1312 80.7056C84.1918 81.4571 84.1836 82.5146 84.1408 83.0748C84.0058 84.4512 83.2241 87.5011 82.5422 89.2897C82.011 90.6622 80.3344 93.9263 80.2071 93.8322C80.1716 93.8095 80.3095 93.3352 80.5181 92.7687C81.4999 90.072 82.3888 85.3153 82.4221 82.5235C82.4736 78.8555 81.7104 75.2156 80.1568 71.6442C78.7662 68.465 75.0304 63.2825 72.9528 61.6635C72.3839 61.2238 71.9148 60.8232 71.9083 60.794C71.8986 60.7503 72.2461 60.5354 72.6805 60.3011C74.6707 59.201 76.2431 57.383 78.0468 54.0753C80.7214 49.1742 82.6224 43.8227 82.9865 38.1987C83.6184 27.8384 82.7805 21.2623 79.9147 14.1118C78.6627 11.0089 77.5091 9.16925 74.8628 6.08544C71.6267 2.32711 64.6867 -1.8573 59.9289 1.06569ZM63.4084 5.98383C63.8664 6.53993 64.1675 7.75816 64.0868 8.83174C64.0584 9.25113 64.0507 10.7216 64.0557 12.1127C64.0993 17.0293 63.8487 18.7067 62.8828 20.0382C61.5778 21.8275 59.8339 21.7101 58.7509 19.7783C58.2716 18.9209 57.7581 16.5413 57.7433 15.1064C57.6965 12.6383 58.1982 9.69652 59.0023 7.77373C59.689 6.14964 61.7443 4.06841 63.4084 5.98383ZM62.0431 27.8897C61.6385 29.9685 60.3295 30.0298 59.8615 27.9919C59.6477 27.0297 59.7194 26.463 60.2109 25.5276C61.152 23.6885 62.2315 26.9725 62.0431 27.8897ZM61.3149 32.4118C61.7988 33.0845 62.3674 35.712 62.3791 37.2699C62.3697 40.6425 60.4761 43.1409 59.4844 38.6781C59.1782 37.2315 59.1964 35.1927 59.5443 34.0903C59.7913 33.3222 60.4013 31.2815 61.3149 32.4118ZM120.327 24.195C120.544 25.1718 119.046 26.9123 118.588 26.2185C118.217 25.6431 118.352 24.2668 118.831 23.8237C119.414 23.2811 120.157 23.4295 120.327 24.195ZM30.6365 44.9963C31.8254 44.9914 37.3747 45.287 37.6959 46.7323C37.7542 46.9948 36.6967 47.2297 33.5672 47.6497C28.4464 48.3439 28.2033 48.4132 22.7431 50.5903C19.3782 51.9347 19.3492 51.9411 18.8997 51.7656C17.9541 51.4096 18.3034 50.1081 19.6721 48.9472C22.5405 46.4959 26.8262 44.9599 30.6365 44.9963ZM119.234 27.6202C119.466 28.257 119.342 29.0649 118.915 29.8789C118.378 30.8854 118.169 30.9013 117.945 29.8954C117.647 28.5541 118.006 27.2962 118.707 27.2324C119.017 27.194 119.127 27.2768 119.234 27.6202ZM6.74103 54.7885C6.68192 55.1382 6.38452 55.5103 5.58524 56.2234C4.11164 57.4904 2.38942 56.8113 4.04272 54.9597C4.45752 54.5004 5.23447 53.9605 5.63685 53.8558C6.19184 53.7325 6.84194 54.2461 6.74103 54.7885ZM39.4445 46.6939C39.9646 46.8603 40.6595 47.2263 40.7127 47.4657C40.7659 47.7051 39.8545 47.6925 39.5064 47.4944C38.8813 47.1438 38.9245 46.5275 39.4445 46.6939ZM48.3609 48.8911C49.2873 49.073 53.302 50.5669 52.8378 51.9354C52.7367 52.2332 50.7344 51.5001 48.8653 50.4773C47.6182 49.7905 46.339 49.2333 45.5804 49.0347C43.8087 48.5869 42.5212 47.7867 43.6048 47.806C45.2365 47.8771 46.7703 48.5876 48.3609 48.8911ZM3.90282 57.5458C4.15936 57.9477 3.44481 60.6156 3.06816 60.6993C2.60459 60.8023 2.58241 58.65 3.03211 57.8004C3.2441 57.3861 3.71566 57.2508 3.90282 57.5458ZM117.333 39.318C117.04 40.1176 113.395 45.4713 112.724 46.0793C110.801 47.8224 110.79 47.8402 110.767 49.926C110.747 51.7511 110.538 52.4552 109.204 55.2761C108.679 56.4025 108.285 55.8627 108.155 53.8415C108.045 52.0453 108.381 50.5478 109.255 49.0073C110.023 47.674 110.084 47.4004 109.987 45.6626C109.897 44.0301 110.155 42.9325 110.994 41.5069C111.832 40.0813 112.813 39.0219 114.195 38.057C115.538 37.1043 118.194 36.7795 117.333 39.318ZM108.617 61.8016C108.821 62.7201 108.793 64.8529 108.577 65.7271C108.386 66.4426 108.087 66.7385 107.816 66.4774C107.542 66.2017 107.131 64.0749 107.142 63.032C107.15 61.8368 107.723 57.7771 108.181 58.6091C108.64 59.4411 108.532 61.422 108.617 61.8016ZM56.2332 76.0421C56.3593 77.7185 59.1475 88.4754 57.7717 88.7811C57.2791 88.8905 56.6957 88.4541 55.7764 87.3273C53.2476 84.1562 51.9433 79.2443 52.7228 75.7053C53.6114 71.6263 55.9465 72.4515 56.2332 76.0421ZM96.4601 77.2165C98.5322 76.8856 100.708 76.2591 102.786 76.1321C104.002 76.0609 105.145 76.2811 105.217 76.6018C105.301 76.9809 102.315 77.8432 101.4 77.6945C99.4347 77.3573 96.1773 78.6663 94.6843 79.8294C93.9203 80.4276 91.3088 81.7422 89.3262 82.5346C88.2351 82.9583 86.5498 82.8363 86.8934 81.3005C87.1592 80.1705 88.4201 79.1407 90.9304 77.9862C92.7273 77.1431 94.5591 77.5577 96.4601 77.2165ZM109.676 76.2841C111.094 76.7799 110.85 77.3237 109.239 77.192C108.046 77.0899 107.455 76.8235 107.519 76.4268C107.579 76.0156 108.702 75.9345 109.676 76.2841ZM60.0271 90.79C60.6383 91.5568 60.5854 93.0975 60.2394 93.2509C59.9192 93.3832 58.7454 92.5475 58.4304 91.7454C57.9472 90.4605 59.2481 89.8156 60.0271 90.79ZM63.2656 97.0379C63.7979 97.7916 63.9675 98.6034 63.9048 98.6632C63.6909 98.8637 61.7476 96.4805 61.6083 95.8536C61.4819 95.285 62.1784 95.5659 63.2656 97.0379ZM124.137 93.4036C124.657 93.6246 125.594 94.9003 127.593 98.082C130.57 102.791 131.28 104.071 132.077 106.219C132.709 107.9 133.638 109.208 135.735 111.327C136.858 112.445 142.726 118.946 141.731 120.521C141.459 120.951 134.456 113.373 133.979 112.727C131.892 109.902 131.597 109.6 129.5 108.169C125.993 105.796 124.077 103.055 123.244 99.1708C122.634 96.3537 122.615 94.2161 123.177 93.6015C123.507 93.2375 123.652 93.2054 124.137 93.4036ZM63.4775 113.981C61.9228 118.136 59.0774 126.402 58.2439 129.219C57.7999 130.71 57.0565 133.522 56.5938 135.476C56.1166 137.433 55.4548 139.86 55.1132 140.854C54.4106 142.892 54.1469 144.373 54.3381 145.233C54.5681 146.268 54.7952 150.027 54.6692 150.897C54.6245 151.237 54.251 152.818 53.6793 152.325C53.0554 151.775 52.9725 148.734 53.4689 145.426C53.638 144.272 53.6754 143.346 53.576 142.419C53.1797 138.652 53.2637 136.43 53.9107 132.569C54.6534 128.043 56.9785 120.856 59.2936 115.813C61.1494 111.809 66.4762 106.033 63.4775 113.981ZM80.4695 118.069C80.0863 122.912 80.067 124.125 80.2043 128.164C80.2679 129.955 80.3206 132.04 80.3055 132.793C80.2705 136.809 80.6911 139.454 81.9487 143.198C82.7262 145.535 82.9711 146.842 83.0354 149.184C83.1626 154.066 83.1186 153.663 83.8254 156.092C84.1765 157.329 84.7779 159.215 85.148 160.265C86.5267 164.212 86.7864 165.791 86.0472 165.68C85.4191 165.59 85.0978 164.897 84.3275 161.977C83.923 160.43 83.4376 158.656 83.2403 158.042C83.0608 157.439 82.7852 156.063 82.6422 155.008C82.4339 153.387 82.3255 152.967 81.9929 152.291C81.7734 151.851 81.1288 150.25 80.5649 148.738C79.4725 145.737 79.526 146.047 79.119 141.41C78.833 138.276 78.4879 136.654 77.6591 134.498C76.0321 130.254 75.6309 126.396 76.2402 120.86C77.0653 113.488 81.3717 106.359 80.4695 118.069ZM144.34 122.481C146.867 124.389 147.881 127.374 151.265 128.194C152.743 128.554 155.876 129.449 156.657 129.75C158.833 130.536 156.782 132.008 155.479 132.108C153.808 132.249 152.258 131.844 150.719 130.87C149.727 130.234 149.304 129.838 148.038 128.314C146.718 126.696 143.461 124.885 142.962 122.848C142.726 121.922 143.375 121.762 144.34 122.481ZM54.5254 155.308C54.6011 156.137 53.9637 156.624 53.8776 155.581C53.8368 155.193 53.8123 154.71 53.7767 154.55C53.7281 154.331 53.991 153.728 54.2398 154.023C54.4886 154.318 54.4667 154.771 54.5254 155.308ZM56.3652 162.224C57.1188 163.494 58.9849 165.941 60.0974 167.116C61.4663 168.556 61.7377 169.23 61.2428 170.014C60.6917 170.886 59.6388 170.936 58.5928 170.128C57.861 169.572 56.5272 167.879 55.9219 166.728C55.2617 165.468 55.0576 164.549 54.8998 162.06C54.8207 160.746 54.6729 159.739 54.4901 159.122C54.1732 158.106 53.9089 156.784 54.405 156.892C54.9012 156.999 55.9464 161.536 56.3652 162.224ZM90.612 169.393C91.4674 169.754 92.4719 170.785 92.9401 171.798C93.8637 173.765 92.4956 175.339 90.3036 174.847C88.7993 174.508 87.6805 173.441 87.355 172.045C86.9012 170.002 88.6911 168.611 90.612 169.393Z" fill="#F5EFFF" fill-opacity="0.05"/>
<path d="M116.073 97.6123C115.013 98.7963 111.206 101.708 108.447 103.453C105.929 105.053 105.355 105.685 105.399 106.838C105.449 108.433 107.687 115.356 109.588 119.876C110.99 123.175 113.23 126.961 115.184 129.326C119.918 135.069 128.231 140.548 135.901 137.865C138.182 137.07 140.004 135.323 139.429 132.736C139.05 131.03 138.272 129.719 133.347 122.399C128.726 115.651 124.103 108.797 120.184 101.61C118.058 97.722 117.397 96.798 116.832 96.9235C116.73 96.9461 116.388 97.2517 116.073 97.6123ZM109.881 106.898C110.358 107.128 110.742 107.762 111.587 109.716C111.87 110.373 112.383 111.452 112.733 112.139C113.095 112.808 113.705 114.187 114.098 115.202C114.487 116.201 115.064 117.634 115.348 118.366C116.704 121.798 118.147 123.175 120.063 125.029C126.938 131.616 131.308 133.166 130.921 133.923C130.534 134.679 127.95 133.344 126.566 132.657C124.239 131.491 122.203 129.648 119.482 126.229C117.715 124.021 116.512 122.713 114.871 121.211C113.663 120.087 113.018 119.236 112.026 117.437C109.692 113.228 108.183 108.285 108.892 107.164C109.218 106.647 109.305 106.628 109.881 106.898Z" fill="#F5EFFF" fill-opacity="0.05"/>
</svg>
