<svg width="32" height="32" viewBox="0 0 32 32" fill="none" xmlns="http://www.w3.org/2000/svg">
<path d="M10.0011 31.9984C9.73789 31.9999 9.47698 31.9495 9.23332 31.85C8.98965 31.7504 8.76803 31.6038 8.58116 31.4184L0.581557 23.4188C0.209073 23.0441 0 22.5372 0 22.0089C0 21.4805 0.209073 20.9737 0.581557 20.599L8.58116 12.5994C8.96375 12.2717 9.45587 12.1005 9.9592 12.12C10.4625 12.1394 10.94 12.3481 11.2962 12.7042C11.6523 13.0604 11.861 13.5379 11.8804 14.0412C11.8999 14.5445 11.7287 15.0366 11.401 15.4192L4.82135 21.9989L11.401 28.5786C11.6819 28.8571 11.8738 29.2126 11.9525 29.6003C12.0313 29.9879 11.9934 30.3901 11.8435 30.7562C11.6937 31.1222 11.4387 31.4356 11.1107 31.6567C10.7828 31.8778 10.3966 31.9967 10.0011 31.9984Z" fill="white"/>
<path d="M26.0002 23.9988H2.00137C1.47096 23.9988 0.962277 23.7881 0.587223 23.4131C0.212169 23.038 0.00146484 22.5293 0.00146484 21.9989C0.00146484 21.4685 0.212169 20.9598 0.587223 20.5848C0.962277 20.2097 1.47096 19.999 2.00137 19.999H26.0002C26.5306 19.999 27.0393 19.7883 27.4143 19.4133C27.7894 19.0382 28.0001 18.5295 28.0001 17.9991V5.9997C28.0001 5.4693 27.7894 4.96061 27.4143 4.58556C27.0393 4.21051 26.5306 3.9998 26.0002 3.9998H6.00117C5.47076 3.9998 4.96208 3.7891 4.58703 3.41404C4.21197 3.03899 4.00127 2.53031 4.00127 1.9999C4.00127 1.46949 4.21197 0.960812 4.58703 0.585758C4.96208 0.210704 5.47076 0 6.00117 0H26.0002C27.5914 0 29.1175 0.63211 30.2426 1.75727C31.3678 2.88244 31.9999 4.40848 31.9999 5.9997V17.9991C31.9999 19.5903 31.3678 21.1164 30.2426 22.2415C29.1175 23.3667 27.5914 23.9988 26.0002 23.9988Z" fill="white"/>
</svg>
