<svg width="9" height="13" viewBox="0 0 9 13" fill="none" xmlns="http://www.w3.org/2000/svg">
<g clip-path="url(#clip0_1137_67)">
<path d="M8.99998 13H-1.52588e-05V11.6945H1.00981V0H7.99481V11.7006C8.167 11.7006 8.32987 11.7006 8.49275 11.7006C8.65562 11.7006 8.8185 11.7006 8.99068 11.7006C8.99068 11.8281 8.99068 11.9313 8.99068 12.0346C8.99068 12.3564 8.99533 12.6782 8.99998 13ZM5.49119 11.6945C5.49119 11.6581 5.49585 11.6217 5.49585 11.5913C5.49119 11.1238 5.51446 10.6502 5.47258 10.1826C5.40743 9.4965 4.92346 9.04717 4.37899 9.11397C3.90898 9.16861 3.51343 9.75152 3.50877 10.3891C3.50877 10.7898 3.50877 11.1845 3.50877 11.5852C3.50877 11.6217 3.50877 11.6581 3.51343 11.6945H5.49119ZM2.01033 1.29332V2.5745H2.99223V1.29332H2.01033ZM6.98964 1.29332H6.00309V2.5745H6.98964V1.29332ZM2.99688 3.90425H2.01033V5.18543H2.99688V3.90425ZM6.98499 5.18543V3.90425H6.00309V5.18543H6.98499ZM2.01033 7.77814H2.99688V6.49696H2.01033V7.77814ZM6.98964 7.77814V6.49089H6.00774V7.77814H6.98964ZM4.01136 1.29939V2.58057H4.98396V1.29939H4.01136ZM4.01136 5.18543H4.98861V3.90425H4.01136V5.18543ZM4.99326 6.50304H4.01136V7.78421H4.99326V6.50304Z" fill="url(#paint0_linear_1137_67)"/>
</g>
<defs>
<linearGradient id="paint0_linear_1137_67" x1="3.99998" y1="13" x2="3.99998" y2="7.00677e-08" gradientUnits="userSpaceOnUse">
<stop stop-color="#E7E7E7"/>
<stop offset="1" stop-color="#697A94"/>
</linearGradient>
<clipPath id="clip0_1137_67">
<rect width="9" height="13" fill="white"/>
</clipPath>
</defs>
</svg>
