<svg width="127" height="114" viewBox="0 0 127 114" fill="none" xmlns="http://www.w3.org/2000/svg">
<path d="M70.1089 41.8308C70.8884 42.2034 71.8224 41.8735 72.195 41.094C72.5676 40.3144 72.2377 39.3804 71.4581 39.0079C70.6786 38.6353 69.7446 38.9652 69.372 39.7447C68.9994 40.5243 69.3293 41.4582 70.1089 41.8308Z" fill="black"/>
<path d="M56.2566 70.8133C57.0361 71.1859 57.9701 70.856 58.3427 70.0764C58.7153 69.2969 58.3854 68.3629 57.6058 67.9903C56.8263 67.6177 55.8923 67.9476 55.5197 68.7272C55.1471 69.5067 55.477 70.4407 56.2566 70.8133Z" fill="black"/>
<path d="M103.541 74.8485C104.321 75.2211 105.255 74.8911 105.627 74.1116C106 73.3321 105.67 72.3981 104.89 72.0255C104.111 71.6529 103.177 71.9828 102.804 72.7624C102.432 73.5419 102.762 74.4759 103.541 74.8485Z" fill="black"/>
<path d="M23.418 36.5535C24.1975 36.9261 25.1315 36.5962 25.5041 35.8167C25.8766 35.0371 25.5467 34.1031 24.7672 33.7306C23.9877 33.358 23.0537 33.6879 22.6811 34.4674C22.3085 35.247 22.6384 36.181 23.418 36.5535Z" fill="black"/>
<path d="M87.1518 62.1903C87.9314 62.5629 88.8654 62.233 89.2379 61.4535C89.6105 60.6739 89.2806 59.7399 88.5011 59.3674C87.7215 58.9948 86.7876 59.3247 86.415 60.1042C86.0424 60.8838 86.3723 61.8177 87.1518 62.1903Z" fill="black"/>
<path d="M43.5615 41.3563C44.3411 41.7289 45.275 41.399 45.6476 40.6194C46.0202 39.8399 45.6903 38.9059 44.9108 38.5333C44.1312 38.1608 43.1972 38.4907 42.8246 39.2702C42.4521 40.0498 42.782 40.9837 43.5615 41.3563Z" fill="black"/>
<path d="M91.4653 101.628L10.1639 62.7702C7.82527 61.6525 5.02333 62.6422 3.90559 64.9808C2.78784 67.3195 3.77756 70.1214 6.11618 71.2391L87.4176 110.097C89.7563 111.215 92.5582 110.225 93.6759 107.887C94.7937 105.548 93.804 102.746 91.4653 101.628Z" fill="#FED030"/>
<path d="M91.4653 101.628L88.6423 100.279C89.7654 100.816 90.6292 101.777 91.0438 102.95C91.4583 104.124 91.3897 105.414 90.8529 106.537C90.3162 107.66 89.3553 108.524 88.1816 108.939C87.0079 109.353 85.7177 109.285 84.5946 108.748L87.4176 110.097C88.5406 110.634 89.8309 110.703 91.0046 110.288C92.1782 109.873 93.1391 109.01 93.6759 107.887C94.2127 106.764 94.2813 105.473 93.8667 104.3C93.4522 103.126 92.5883 102.165 91.4653 101.628Z" fill="#F8BE32"/>
<path d="M11.152 63.2425C13.1006 56.1439 15.0471 49.045 16.9913 41.9458L21.2728 23.807L31.4597 35.2647L31.3896 35.3145C30.5132 35.7009 29.7659 36.3306 29.2366 37.129C28.7073 37.9273 28.4182 38.8608 28.4035 39.8185C28.3889 40.7763 28.6493 41.7182 29.1539 42.5324C29.6585 43.3466 30.386 43.9989 31.2503 44.412C32.1145 44.825 33.0791 44.9815 34.0296 44.8627C34.9801 44.744 35.8766 44.3551 36.6126 43.7421C37.3487 43.1291 37.8935 42.3178 38.1822 41.4045C38.471 40.4912 38.4918 39.5142 38.2419 38.5895L38.2348 38.5029C41.3986 34.0503 44.5633 29.5975 47.729 25.1443L50.4178 41.5515C49.7515 42.2479 49.2468 43.0825 48.9396 43.9961C47.9101 47.1175 49.7448 49.867 49.9632 50.1841C50.7807 51.3536 51.9117 52.2686 53.2261 52.824C54.5405 53.3794 55.9849 53.5527 57.3934 53.3238C61.3539 52.646 62.9608 48.9937 63.1226 48.5924C64.372 45.6107 63.6601 42.0454 61.3212 39.4803L79.3696 22.329L79.4674 22.3757L77.4516 47.1898C73.9865 46.9809 70.765 48.6663 69.2296 51.5113C69.0246 51.8918 67.1918 55.4362 69.1463 58.9412C69.8532 60.1807 70.8955 61.1955 72.1534 61.8691C73.4113 62.5427 74.8337 62.8477 76.2572 62.749C76.641 62.7198 79.9311 62.4243 81.7152 59.6589C82.2331 58.846 82.5656 57.9291 82.689 56.9732L97.145 48.7604C95.6674 54.0188 94.1902 59.2782 92.7133 64.5386L92.6414 64.5874C91.7649 64.9738 91.0177 65.6036 90.4884 66.4019C89.9591 67.2003 89.6699 68.1337 89.6553 69.0915C89.6406 70.0493 89.901 70.9911 90.4056 71.8053C90.9102 72.6195 91.6378 73.2719 92.502 73.6849C93.3663 74.098 94.3309 74.2544 95.2814 74.1357C96.2319 74.017 97.1283 73.628 97.8644 73.015C98.6005 72.4021 99.1452 71.5908 99.434 70.6775C99.7228 69.7642 99.7435 68.7872 99.4937 67.8625L99.4884 67.7767L114.807 68.5117L103.373 83.2436C99.071 89.2173 94.7696 95.1906 90.4691 101.164L11.152 63.2425Z" fill="#FED030"/>
<path d="M62.2311 40.6481C62.18 40.0674 62.071 39.4933 61.9058 38.9343C61.7122 39.1169 61.5196 39.3023 61.326 39.4849C61.6571 39.8488 61.9597 40.2377 62.2311 40.6481ZM91.2444 60.3709L91.1725 60.4198C90.4234 60.7498 89.7668 61.2585 89.2599 61.9012C88.7531 62.5439 88.4116 63.3011 88.2654 64.1065C88.1191 64.9118 88.1726 65.7408 88.421 66.5206C88.6695 67.3005 89.1054 68.0076 89.6906 68.5799C89.7933 67.7157 90.1196 66.8932 90.6373 66.1935C91.1549 65.4939 91.846 64.9413 92.6424 64.5902L92.7143 64.5413C94.1907 59.2823 95.6691 54.0235 97.1498 48.7649C96.1012 49.3627 95.0519 49.9586 94.002 50.5526L91.2444 60.3709ZM75.9779 43.0176C72.5128 42.8087 69.2914 44.4941 67.7559 47.3391C67.5509 47.7196 65.7182 51.264 67.6726 54.769C67.8442 55.0752 68.0378 55.3686 68.2518 55.6469C68.2332 54.2087 68.567 52.7879 69.224 51.5086C70.7595 48.6636 73.9809 46.9782 77.446 47.1871L79.4675 22.3757L79.3697 22.329L77.5109 24.0993L75.9779 43.0176Z" fill="#F8BE32"/>
<path d="M110.267 68.2884C107.477 71.8871 104.691 75.4789 101.908 79.0638L91.0404 94.1542C90.4682 94.9485 89.6348 95.5163 88.6862 95.7582C87.7375 96 86.734 95.9006 85.8514 95.4772L11.9931 60.1766L11.152 63.2425L90.4774 101.156L103.382 83.236L114.815 68.5041L110.267 68.2884ZM48.9441 37.3793C48.2778 38.0757 47.7731 38.9103 47.4659 39.8239C46.4364 42.9453 48.2711 45.6948 48.4894 46.0119C48.5363 46.0782 48.585 46.1408 48.6291 46.2035C48.5968 45.4544 48.7001 44.7057 48.934 43.9934C49.2412 43.0798 49.7459 42.2452 50.4122 41.5488L47.729 25.1443L47.0873 26.0467L48.9441 37.3793ZM27.1675 34.1935C26.8836 35.0793 26.852 36.0267 27.0763 36.9294C27.3007 37.8321 27.7721 38.6545 28.4378 39.3042C28.5405 38.44 28.8668 37.6174 29.3845 36.9178C29.9021 36.2181 30.5933 35.6655 31.3896 35.3145L31.4597 35.2647L28.5645 32.0107C27.9153 32.603 27.4335 33.3559 27.1675 34.1935Z" fill="#F8BE32"/>
<path d="M54.0529 75.4241C57.4309 77.0387 61.4782 75.6091 63.0927 72.231C64.7072 68.853 63.2776 64.8058 59.8996 63.1913C56.5216 61.5768 52.4744 63.0063 50.8599 66.3844C49.2453 69.7624 50.6749 73.8096 54.0529 75.4241Z" fill="#EB304A"/>
<path d="M59.8995 63.1913C59.4241 62.9643 58.9238 62.7935 58.4089 62.6823C59.5959 63.6404 60.4251 64.9709 60.7624 66.4586C61.0996 67.9464 60.9253 69.5044 60.2674 70.8808C59.6096 72.2571 58.5068 73.3714 57.1373 74.0434C55.7678 74.7154 54.2116 74.9058 52.7205 74.5839C53.4651 75.1849 54.3286 75.6215 55.254 75.8649C56.1794 76.1083 57.1459 76.153 58.0899 75.9961C59.0339 75.8392 59.9339 75.4843 60.7309 74.9546C61.5278 74.4249 62.2036 73.7325 62.7138 72.9229C63.2239 72.1133 63.5569 71.2049 63.6908 70.2574C63.8247 69.3099 63.7565 68.3447 63.4907 67.4255C63.2248 66.5062 62.7674 65.6537 62.1484 64.9239C61.5295 64.1941 60.763 63.6036 59.8995 63.1913Z" fill="#E4222E"/>
<path d="M87.8088 87.512C89.3679 88.2571 91.2359 87.5973 91.981 86.0382C92.7262 84.4792 92.0664 82.6112 90.5073 81.866C88.9482 81.1209 87.0803 81.7807 86.3351 83.3398C85.5899 84.8988 86.2497 86.7668 87.8088 87.512Z" fill="#EB304A"/>
<path d="M90.5073 81.866C90.3026 81.7687 90.0879 81.694 89.867 81.6432C90.4267 82.0825 90.82 82.6993 90.982 83.392C91.144 84.0847 91.0652 84.812 90.7584 85.4539C90.4516 86.0958 89.9352 86.6139 89.2944 86.9229C88.6536 87.2319 87.9266 87.3133 87.2333 87.1537C87.5796 87.4254 87.9792 87.621 88.4062 87.7277C88.8332 87.8344 89.2779 87.8499 89.7112 87.773C90.1446 87.6962 90.5569 87.5288 90.9211 87.2817C91.2854 87.0347 91.5934 86.7136 91.8251 86.3394C92.0568 85.9652 92.2069 85.5463 92.2657 85.1101C92.3245 84.674 92.2906 84.2303 92.1662 83.8081C92.0418 83.3859 91.8298 82.9947 91.5439 82.6601C91.2581 82.3254 90.9048 82.0549 90.5073 81.866Z" fill="#E4222E"/>
<path d="M23.4451 56.7494C25.0041 57.4945 26.8721 56.8347 27.6173 55.2756C28.3624 53.7166 27.7026 51.8486 26.1435 51.1034C24.5844 50.3583 22.7165 51.0181 21.9713 52.5772C21.2262 54.1363 21.886 56.0042 23.4451 56.7494Z" fill="#EB304A"/>
<path d="M36.9991 67.5715L35.1811 58.8907L43.0778 54.8531L44.8958 63.5339L36.9991 67.5715Z" fill="#1CABE1"/>
<path d="M43.0777 54.8531L40.7857 56.0209L41.7501 60.6202C41.8439 61.068 41.7878 61.5343 41.5905 61.9472C41.3932 62.36 41.0656 62.6966 40.6581 62.9049L36.4681 65.0544L36.9963 67.5771L44.8957 63.5339L43.0777 54.8531Z" fill="#199AD5"/>
<path d="M70.8746 83.7623L69.0566 75.0815L76.9533 71.0439L78.7713 79.7247L70.8746 83.7623Z" fill="#1CABE1"/>
<path d="M76.9535 71.0439L74.6614 72.2118L75.6258 76.811C75.7196 77.2589 75.6635 77.7252 75.4662 78.138C75.2689 78.5509 74.9413 78.8874 74.5339 79.0957L70.3438 81.2453L70.872 83.768L78.7715 79.7247L76.9535 71.0439Z" fill="#199AD5"/>
<path d="M70.1089 41.8308C70.8884 42.2034 71.8224 41.8735 72.195 41.094C72.5676 40.3144 72.2377 39.3804 71.4581 39.0079C70.6786 38.6353 69.7446 38.9652 69.372 39.7447C68.9994 40.5243 69.3293 41.4582 70.1089 41.8308Z" fill="#EB304A"/>
<path d="M56.2566 70.8133C57.0361 71.1859 57.9701 70.856 58.3427 70.0764C58.7153 69.2969 58.3854 68.3629 57.6058 67.9903C56.8263 67.6177 55.8923 67.9476 55.5197 68.7272C55.1471 69.5067 55.477 70.4407 56.2566 70.8133Z" fill="white"/>
<path d="M103.541 74.8485C104.321 75.2211 105.255 74.8911 105.627 74.1116C106 73.3321 105.67 72.3981 104.89 72.0255C104.111 71.6529 103.177 71.9828 102.804 72.7624C102.432 73.5419 102.762 74.4759 103.541 74.8485Z" fill="#EB304A"/>
<path d="M23.418 36.5535C24.1975 36.9261 25.1315 36.5962 25.5041 35.8167C25.8766 35.0371 25.5467 34.1031 24.7672 33.7306C23.9877 33.358 23.0537 33.6879 22.6811 34.4674C22.3085 35.247 22.6384 36.181 23.418 36.5535Z" fill="#EB304A"/>
<path d="M87.1518 62.1903C87.9314 62.5629 88.8654 62.233 89.2379 61.4535C89.6105 60.6739 89.2806 59.7399 88.5011 59.3674C87.7215 58.9948 86.7876 59.3247 86.415 60.1042C86.0424 60.8838 86.3723 61.8177 87.1518 62.1903Z" fill="#1CABE1"/>
<path d="M43.5615 41.3563C44.3411 41.7289 45.275 41.399 45.6476 40.6194C46.0202 39.8399 45.6903 38.9059 44.9108 38.5333C44.1312 38.1608 43.1972 38.4907 42.8246 39.2702C42.4521 40.0498 42.782 40.9837 43.5615 41.3563Z" fill="#1CABE1"/>
<path d="M26.1435 51.1034C25.9388 51.0061 25.7241 50.9314 25.5033 50.8807C26.0629 51.3199 26.4562 51.9367 26.6182 52.6294C26.7803 53.3221 26.7014 54.0494 26.3946 54.6913C26.0878 55.3332 25.5714 55.8513 24.9306 56.1603C24.2898 56.4693 23.5628 56.5507 22.8695 56.3911C23.2158 56.6628 23.6155 56.8584 24.0424 56.9651C24.4694 57.0718 24.9141 57.0873 25.3475 57.0104C25.7808 56.9336 26.1931 56.7662 26.5573 56.5191C26.9216 56.2721 27.2296 55.951 27.4613 55.5768C27.693 55.2026 27.8432 54.7837 27.9019 54.3475C27.9607 53.9114 27.9268 53.4677 27.8024 53.0455C27.6781 52.6233 27.466 52.2321 27.1802 51.8975C26.8943 51.5628 26.5411 51.2923 26.1435 51.1034Z" fill="#E4222E"/>
</svg>
