<svg width="18" height="18" viewBox="0 0 18 18" fill="none" xmlns="http://www.w3.org/2000/svg">
<path d="M0.314654 18H11.0132C11.0957 17.9964 11.1738 17.9608 11.2318 17.9002C11.2898 17.8397 11.3234 17.7587 11.3258 17.6737V16.8373C11.3237 16.5775 11.2262 16.3281 11.0528 16.1393C10.8794 15.9506 10.643 15.8366 10.3913 15.8201V15.2987C10.3913 14.7363 9.94958 14.2654 9.40348 14.2654H1.92437C1.37827 14.2654 0.934468 14.7363 0.934468 15.2987V15.8202C0.682714 15.8366 0.446347 15.9506 0.272959 16.1394C0.099571 16.3281 0.00203871 16.5775 0 16.8373V17.6737C0.00283348 17.7589 0.0368299 17.8399 0.0951791 17.9004C0.153528 17.9609 0.231921 17.9965 0.314654 18ZM1.92437 14.8814H9.40348C9.61979 14.8814 9.79323 15.0759 9.79323 15.2987V15.8055H1.53253V15.2987C1.53211 15.1903 1.57285 15.0859 1.64605 15.008C1.71925 14.93 1.81912 14.8846 1.92437 14.8814ZM0.59806 16.8373C0.601272 16.7273 0.645418 16.6228 0.721362 16.5454C0.797306 16.468 0.899233 16.4236 1.00605 16.4215H10.3218C10.4284 16.4237 10.5301 16.4681 10.6057 16.5456C10.6812 16.623 10.725 16.7275 10.7277 16.8373V17.384H0.59806V16.8373ZM3.41421 8.05976L6.54621 10.9133C6.57563 10.9401 6.60988 10.9607 6.64701 10.9738C6.68414 10.987 6.72343 10.9925 6.76263 10.99C6.80183 10.9876 6.84017 10.9772 6.87546 10.9594C6.91076 10.9417 6.94231 10.917 6.96833 10.8867L7.97539 9.71397C8.02793 9.65279 8.05473 9.57262 8.04988 9.49109C8.04504 9.40956 8.00895 9.33335 7.94956 9.27923L7.80883 9.15102C8.38202 8.86171 8.91979 8.50323 9.41081 8.08313L10.9926 9.52432L10.8866 9.64787C10.834 9.70905 10.8072 9.78923 10.8121 9.87076C10.8169 9.95229 10.853 10.0285 10.9124 10.0826L15.2137 14.0015C15.519 14.2812 15.9136 14.4355 16.3222 14.4348C16.3571 14.4348 16.3919 14.4337 16.4268 14.4315C16.6467 14.4183 16.8618 14.3602 17.0598 14.2608C17.2577 14.1613 17.4345 14.0224 17.58 13.8521C17.8741 13.5088 18.024 13.0594 17.9969 12.6024C17.9697 12.1455 17.7676 11.7183 17.435 11.4146L13.1338 7.49584C13.0744 7.44172 12.9966 7.41413 12.9174 7.41913C12.8383 7.42412 12.7643 7.4613 12.7118 7.52248L12.6056 7.64603L11.0238 6.20484C11.3687 5.65159 11.6485 5.05807 11.8574 4.43677L11.998 4.56494C12.0574 4.61906 12.1353 4.64666 12.2144 4.64167C12.2936 4.63668 12.3676 4.59951 12.4201 4.53834L13.4272 3.36565C13.4532 3.33535 13.4732 3.30007 13.486 3.26182C13.4988 3.22357 13.5041 3.18311 13.5017 3.14273C13.4993 3.10236 13.4892 3.06287 13.472 3.02651C13.4548 2.99016 13.4308 2.95766 13.4014 2.93086L10.2693 0.0773082C10.2399 0.0505074 10.2056 0.0299369 10.1685 0.0167712C10.1314 0.00360556 10.0921 -0.00189735 10.0529 0.000576654C10.0137 0.00305066 9.97533 0.0134532 9.94003 0.0311902C9.90474 0.0489271 9.87318 0.0736512 9.84717 0.103951L8.84007 1.27664C8.81405 1.30694 8.79408 1.34222 8.7813 1.38047C8.76852 1.41871 8.76317 1.45918 8.76557 1.49955C8.76798 1.53993 8.77808 1.57942 8.7953 1.61577C8.81252 1.65213 8.83652 1.68463 8.86594 1.71143L9.04259 1.8724C8.10017 2.34568 7.25755 3.00563 6.5629 3.81453C5.86826 4.62343 5.3352 5.56542 4.99421 6.58665L4.81752 6.42568C4.75812 6.37156 4.68029 6.34396 4.60113 6.34894C4.52198 6.35393 4.44799 6.3911 4.39544 6.45228L3.38834 7.62501C3.33581 7.68619 3.30902 7.76637 3.31387 7.8479C3.31872 7.92943 3.35481 8.00564 3.41421 8.05976ZM17.1322 13.4441C17.0384 13.5533 16.9246 13.6425 16.7973 13.7065C16.6701 13.7705 16.5318 13.808 16.3905 13.8169C16.2491 13.8259 16.1074 13.806 15.9735 13.7586C15.8396 13.7111 15.7161 13.637 15.61 13.5403L12.5076 10.7136L13.9365 9.04965L17.0389 11.8763C17.2528 12.0717 17.3828 12.3464 17.4002 12.6403C17.4177 12.9342 17.3213 13.2233 17.1322 13.4441H17.1322ZM12.9616 8.16132L13.4884 8.64131L12.0595 10.3053L11.5324 9.82528L12.9616 8.16132ZM12.2094 8.10742L11.3889 9.06289L9.85954 7.66951C10.0083 7.52154 10.1513 7.36799 10.2885 7.20885C10.4253 7.04954 10.5558 6.88459 10.68 6.71401L12.2094 8.10742ZM10.097 0.742791L12.7811 3.1882L12.1703 3.8995L9.48616 1.45409L10.097 0.742791ZM7.0109 4.22267C7.71023 3.4107 8.56917 2.76116 9.53075 2.31712L11.3692 3.9919C11.0601 5.0298 10.5389 5.98753 9.8406 6.80069C9.1423 7.61386 8.28308 8.26362 7.3207 8.7063L5.48234 7.03152C5.79279 5.99422 6.31384 5.03676 7.0109 4.22267ZM4.64528 7.09097L7.32933 9.53641L6.71849 10.2477L4.03444 7.80227L4.64528 7.09097ZM0.635438 11.3009H2.87816C2.95747 11.3009 3.03353 11.2684 3.08961 11.2107C3.14569 11.1529 3.17719 11.0746 3.17719 10.9929C3.17719 10.9112 3.14569 10.8329 3.08961 10.7751C3.03353 10.7173 2.95747 10.6849 2.87816 10.6849H0.635438C0.556131 10.6849 0.480071 10.7173 0.423992 10.7751C0.367913 10.8329 0.336409 10.9112 0.336409 10.9929C0.336409 11.0746 0.367913 11.1529 0.423992 11.2107C0.480071 11.2684 0.556131 11.3009 0.635438 11.3009ZM1.6915 8.87243L3.14677 9.66134C3.21695 9.69939 3.29893 9.70716 3.37467 9.68295C3.45042 9.65874 3.51372 9.60452 3.55066 9.53223C3.5876 9.45994 3.59514 9.3755 3.57164 9.29748C3.54813 9.21946 3.49549 9.15426 3.42531 9.11621L1.97005 8.3273C1.89986 8.28925 1.81788 8.28148 1.74214 8.30569C1.66639 8.32991 1.60309 8.38412 1.56615 8.45641C1.52921 8.5287 1.52167 8.61314 1.54518 8.69116C1.56868 8.76918 1.62132 8.83438 1.6915 8.87243ZM3.14677 12.2719L1.6915 13.0608C1.62131 13.0988 1.56867 13.164 1.54516 13.242C1.52165 13.3201 1.52919 13.4045 1.56613 13.4768C1.60307 13.5491 1.66638 13.6033 1.74212 13.6275C1.81787 13.6517 1.89986 13.644 1.97005 13.6059L3.42531 12.817C3.49549 12.779 3.54813 12.7138 3.57164 12.6357C3.59514 12.5577 3.5876 12.4733 3.55066 12.401C3.51372 12.3287 3.45042 12.2745 3.37467 12.2503C3.29893 12.2261 3.21695 12.2338 3.14677 12.2719Z" fill="white"/>
</svg>
