<svg width="22" height="20" viewBox="0 0 22 20" fill="none" xmlns="http://www.w3.org/2000/svg">
<path fill-rule="evenodd" clip-rule="evenodd" d="M5.41178 17.1416L6.33887 16.2907C6.53704 16.109 6.86011 16.1076 7.0601 16.2875C7.26004 16.4676 7.26151 16.7614 7.06342 16.9432L5.2954 18.5659C5.15157 18.6978 4.93515 18.7391 4.74521 18.6707C4.55528 18.6022 4.42869 18.4373 4.42327 18.2518L4.25827 12.4903C4.25094 12.2345 4.47323 12.0215 4.75472 12.0147C5.03607 12.0081 5.27043 12.2103 5.27775 12.4661L5.41178 17.1416Z" fill="#002147"/>
<path fill-rule="evenodd" clip-rule="evenodd" d="M10.3743 5.28279L11.2009 4.9622C11.4599 4.86176 11.5804 4.58884 11.4699 4.35376C11.3595 4.11832 11.0592 4.00878 10.8007 4.10958L9.97406 4.43018C9.71507 4.53062 9.59458 4.80354 9.70506 5.03862C9.81594 5.27406 10.1158 5.38359 10.3743 5.28279Z" fill="#002147"/>
<path fill-rule="evenodd" clip-rule="evenodd" d="M20.5225 1.34323L12.9578 4.27989C12.6988 4.38033 12.399 4.2708 12.2885 4.03572C12.178 3.80028 12.2981 3.52771 12.5571 3.42728L21.2898 0.0371893C21.4811 -0.0370461 21.7033 0.00189246 21.8506 0.135807C21.9979 0.269722 22.0408 0.471323 21.9591 0.645631L13.0002 19.7183C12.9338 19.8599 12.7941 19.9621 12.6279 19.9916C12.4618 20.0207 12.2905 19.9731 12.1704 19.8643L7.40978 15.5364C7.23245 15.3748 7.21043 15.1201 7.35814 14.9356L12.8421 8.08155L5.05327 12.8628C4.85073 12.9873 4.58013 12.9636 4.40721 12.8068L0.149328 8.93562C0.0296418 8.82682 -0.0227962 8.67107 0.00922689 8.52005C0.0416503 8.36903 0.154132 8.24203 0.309844 8.18162L7.95377 5.21439C8.21236 5.11395 8.51217 5.22312 8.62265 5.45856C8.73313 5.69401 8.61304 5.96657 8.35406 6.067L1.40383 8.76495L4.83111 11.8807L14.6754 5.83738C14.8808 5.71147 15.1558 5.73767 15.3279 5.89961C15.4996 6.06154 15.5188 6.31227 15.3731 6.49422L8.43932 15.1608L12.3586 18.7238L20.5225 1.34323Z" fill="#002147"/>
</svg>
