<svg width="12" height="16" viewBox="0 0 12 16" fill="none" xmlns="http://www.w3.org/2000/svg">
<path d="M0 1.38909H3.80662V1.75273C3.81215 2.31812 4.2278 2.77453 4.74094 2.7782H7.26928C7.51972 2.77779 7.74563 2.66242 7.90594 2.47747L7.90627 2.47711L7.91815 2.46401C8.08668 2.28683 8.19145 2.03745 8.19145 1.76112V1.75534V1.75565V1.392H12V16H2.84547e-05L0 1.38909ZM3.18416 2.11636H0.660072V15.2727H11.3399V2.11636H8.81715C8.74747 2.45928 8.59188 2.7542 8.37678 2.98123L8.37624 2.98181C8.09554 3.30267 7.70236 3.50228 7.26686 3.50325H4.73924C3.98045 3.4969 3.34744 2.91125 3.18619 2.12819L3.18413 2.11634L3.18416 2.11636ZM4.7373 0H7.2607C8.13573 0.00773437 8.84331 0.786609 8.85147 1.74969V1.7544C8.85147 2.23654 8.66934 2.67183 8.37674 2.98128L8.3762 2.98181C8.09542 3.3024 7.70222 3.50173 7.26677 3.50253H4.73924C3.86515 3.49481 3.15811 2.71758 3.14849 1.7559V1.74545C3.1595 0.78639 3.8622 0.0121406 4.73158 1.56164e-05H4.73263L4.7373 0ZM7.26862 2.77818C7.51905 2.77779 7.74496 2.66244 7.90528 2.47747L7.9056 2.47711L7.91748 2.46401C8.086 2.28683 8.19075 2.03745 8.19075 1.76112V1.75534V1.75565C8.18668 1.19003 7.77199 0.732577 7.2592 0.72728H4.74127C4.23032 0.73728 3.81842 1.19059 3.80861 1.75244V1.75344C3.81451 2.31775 4.22888 2.77328 4.74084 2.77815H7.26933L7.26862 2.77818ZM9.78217 6.97454H2.21785V6.24729H9.78217V6.97454ZM9.78217 9.75272H2.21785V9.02546H9.78217V9.75272ZM6.62705 12.5309H2.21782V11.8036H6.62705V12.5309Z" fill="#FBFBFA"/>
<path d="M0 1.38909H3.80662V1.75273C3.81215 2.31812 4.2278 2.77453 4.74094 2.7782H7.26928C7.51972 2.77779 7.74563 2.66242 7.90594 2.47747L7.90627 2.47711L7.91815 2.46401C8.08668 2.28683 8.19145 2.03745 8.19145 1.76112V1.75534V1.75565V1.392H12V16H2.84547e-05L0 1.38909ZM3.18416 2.11636H0.660072V15.2727H11.3399V2.11636H8.81715C8.74747 2.45928 8.59188 2.7542 8.37678 2.98123L8.37624 2.98181C8.09554 3.30267 7.70236 3.50228 7.26686 3.50325H4.73924C3.98045 3.4969 3.34744 2.91125 3.18619 2.12819L3.18413 2.11634L3.18416 2.11636ZM4.7373 0H7.2607C8.13573 0.00773437 8.84331 0.786609 8.85147 1.74969V1.7544C8.85147 2.23654 8.66934 2.67183 8.37674 2.98128L8.3762 2.98181C8.09542 3.3024 7.70222 3.50173 7.26677 3.50253H4.73924C3.86515 3.49481 3.15811 2.71758 3.14849 1.7559V1.74545C3.1595 0.78639 3.8622 0.0121406 4.73158 1.56164e-05H4.73263L4.7373 0ZM7.26862 2.77818C7.51905 2.77779 7.74496 2.66244 7.90528 2.47747L7.9056 2.47711L7.91748 2.46401C8.086 2.28683 8.19075 2.03745 8.19075 1.76112V1.75534V1.75565C8.18668 1.19003 7.77199 0.732577 7.2592 0.72728H4.74127C4.23032 0.73728 3.81842 1.19059 3.80861 1.75244V1.75344C3.81451 2.31775 4.22888 2.77328 4.74084 2.77815H7.26933L7.26862 2.77818ZM9.78217 6.97454H2.21785V6.24729H9.78217V6.97454ZM9.78217 9.75272H2.21785V9.02546H9.78217V9.75272ZM6.62705 12.5309H2.21782V11.8036H6.62705V12.5309Z" fill="url(#paint0_linear_838_66)"/>
<defs>
<linearGradient id="paint0_linear_838_66" x1="-21" y1="23.5" x2="18.5" y2="5" gradientUnits="userSpaceOnUse">
<stop offset="0.47286" stop-color="#FBFBFA"/>
<stop offset="0.857732" stop-color="#F6BE19"/>
</linearGradient>
</defs>
</svg>
