<svg width="16" height="16" viewBox="0 0 16 16" fill="none" xmlns="http://www.w3.org/2000/svg">
<path d="M8 0.987844C11.8727 0.987844 15.0122 4.1273 15.0122 8.00003C15.0122 11.8728 11.8727 15.0122 8 15.0122C4.12728 15.0122 0.987813 11.8727 0.987813 7.99997C0.992188 4.12903 4.12903 0.992156 7.99959 0.987813H8V0.987844ZM8 14.3165C11.4885 14.3165 14.3165 11.4885 14.3165 8.00002C14.3165 4.5115 11.4885 1.6835 8 1.6835C4.51148 1.6835 1.68348 4.5115 1.68348 8.00002C1.68744 11.4869 4.51308 14.3126 7.99963 14.3165H8ZM8.34781 3.33219H7.65219V0H8.34781V3.33219ZM8.34781 16H7.65219V12.6679H8.34781V16ZM16 8.34786H12.6678V7.6522H16V8.34786ZM3.33219 8.34786H0V7.6522H3.33219V8.34786ZM8 4.98784C9.29475 4.98784 10.3443 6.03744 10.3443 7.33219C10.3443 8.62694 9.29475 9.67653 8 9.67653C6.70525 9.67653 5.65566 8.62694 5.65566 7.33219C5.65722 6.03808 6.70589 4.98942 7.99984 4.98784H8ZM8 8.98089C8.91055 8.98089 9.6487 8.24273 9.6487 7.33217C9.6487 6.42161 8.91058 5.68348 8 5.68348C7.08945 5.68348 6.3513 6.42161 6.3513 7.33219C6.35248 8.24227 7.08992 8.97969 7.99989 8.98089H7.99998H8ZM11.68 13.3635H10.9843V12.6678L10.9844 12.655C10.9844 11.0067 9.64822 9.67058 8 9.67058C6.3563 9.67058 5.02297 10.9994 5.01566 12.6414V13.3377H4.32V12.6421C4.32812 10.6158 5.97259 8.97633 8 8.97633C10.0324 8.97633 11.68 10.624 11.68 12.6564C11.68 12.6614 11.68 12.6664 11.68 12.6714V12.6706V13.3635Z" fill="url(#paint0_linear_838_71)"/>
<defs>
<linearGradient id="paint0_linear_838_71" x1="28.3457" y1="1.41177" x2="-4.49952" y2="2.14511" gradientUnits="userSpaceOnUse">
<stop offset="0.475" stop-color="#F6BE19"/>
<stop offset="1" stop-color="#FBFBFA"/>
</linearGradient>
</defs>
</svg>
